<mxfile host="app.diagrams.net" modified="2024-02-13T13:39:27.365Z" agent="Mozilla/5.0 (X11; Linux x86_64) AppleWebKit/537.36 (KHTML, like Gecko) Chrome/121.0.0.0 Safari/537.36" etag="Nxqoofn5Zpo4GhiGXdXj" version="23.1.4" type="github">
  <diagram id="C5RBs43oDa-KdzZeNtuy" name="Page-1">
    <mxGraphModel dx="1410" dy="776" grid="1" gridSize="10" guides="1" tooltips="1" connect="1" arrows="1" fold="1" page="1" pageScale="1" pageWidth="827" pageHeight="1169" math="0" shadow="0">
      <root>
        <mxCell id="WIyWlLk6GJQsqaUBKTNV-0" />
        <mxCell id="WIyWlLk6GJQsqaUBKTNV-1" parent="WIyWlLk6GJQsqaUBKTNV-0" />
        <mxCell id="Q2zMbFvxR_m6wFwk5AVr-7" style="edgeStyle=orthogonalEdgeStyle;rounded=0;orthogonalLoop=1;jettySize=auto;html=1;entryX=0.5;entryY=0;entryDx=0;entryDy=0;" edge="1" parent="WIyWlLk6GJQsqaUBKTNV-1" source="Q2zMbFvxR_m6wFwk5AVr-4" target="Q2zMbFvxR_m6wFwk5AVr-6">
          <mxGeometry relative="1" as="geometry" />
        </mxCell>
        <mxCell id="Q2zMbFvxR_m6wFwk5AVr-4" value="&lt;p style=&quot;margin:0px;margin-top:4px;text-align:center;&quot;&gt;&lt;br&gt;&lt;b&gt;User&lt;/b&gt;&lt;/p&gt;" style="verticalAlign=top;align=left;overflow=fill;html=1;whiteSpace=wrap;" vertex="1" parent="WIyWlLk6GJQsqaUBKTNV-1">
          <mxGeometry x="79" y="330" width="140" height="60" as="geometry" />
        </mxCell>
        <mxCell id="Q2zMbFvxR_m6wFwk5AVr-6" value="&lt;p style=&quot;margin:0px;margin-top:4px;text-align:center;&quot;&gt;&lt;br&gt;&lt;b&gt;Phone&lt;/b&gt;&lt;/p&gt;" style="verticalAlign=top;align=left;overflow=fill;html=1;whiteSpace=wrap;" vertex="1" parent="WIyWlLk6GJQsqaUBKTNV-1">
          <mxGeometry x="79" y="440" width="140" height="60" as="geometry" />
        </mxCell>
        <mxCell id="Q2zMbFvxR_m6wFwk5AVr-9" style="edgeStyle=orthogonalEdgeStyle;rounded=0;orthogonalLoop=1;jettySize=auto;html=1;entryX=0.5;entryY=0;entryDx=0;entryDy=0;" edge="1" parent="WIyWlLk6GJQsqaUBKTNV-1" source="Q2zMbFvxR_m6wFwk5AVr-10" target="Q2zMbFvxR_m6wFwk5AVr-11">
          <mxGeometry relative="1" as="geometry" />
        </mxCell>
        <mxCell id="Q2zMbFvxR_m6wFwk5AVr-19" style="edgeStyle=orthogonalEdgeStyle;rounded=0;orthogonalLoop=1;jettySize=auto;html=1;" edge="1" parent="WIyWlLk6GJQsqaUBKTNV-1" source="Q2zMbFvxR_m6wFwk5AVr-10" target="Q2zMbFvxR_m6wFwk5AVr-13">
          <mxGeometry relative="1" as="geometry">
            <Array as="points">
              <mxPoint x="599" y="360" />
              <mxPoint x="599" y="360" />
            </Array>
          </mxGeometry>
        </mxCell>
        <mxCell id="Q2zMbFvxR_m6wFwk5AVr-28" style="edgeStyle=orthogonalEdgeStyle;rounded=0;orthogonalLoop=1;jettySize=auto;html=1;entryX=1;entryY=0.5;entryDx=0;entryDy=0;" edge="1" parent="WIyWlLk6GJQsqaUBKTNV-1" source="Q2zMbFvxR_m6wFwk5AVr-10" target="Q2zMbFvxR_m6wFwk5AVr-4">
          <mxGeometry relative="1" as="geometry">
            <Array as="points">
              <mxPoint x="249" y="360" />
              <mxPoint x="249" y="360" />
            </Array>
          </mxGeometry>
        </mxCell>
        <mxCell id="Q2zMbFvxR_m6wFwk5AVr-10" value="&lt;p style=&quot;margin:0px;margin-top:4px;text-align:center;&quot;&gt;&lt;br&gt;&lt;b&gt;UserDAO&lt;/b&gt;&lt;/p&gt;" style="verticalAlign=top;align=left;overflow=fill;html=1;whiteSpace=wrap;" vertex="1" parent="WIyWlLk6GJQsqaUBKTNV-1">
          <mxGeometry x="349" y="330" width="140" height="60" as="geometry" />
        </mxCell>
        <mxCell id="Q2zMbFvxR_m6wFwk5AVr-11" value="&lt;p style=&quot;margin:0px;margin-top:4px;text-align:center;&quot;&gt;&lt;br&gt;&lt;b&gt;PhoneDAO&lt;/b&gt;&lt;/p&gt;" style="verticalAlign=top;align=left;overflow=fill;html=1;whiteSpace=wrap;" vertex="1" parent="WIyWlLk6GJQsqaUBKTNV-1">
          <mxGeometry x="349" y="440" width="140" height="60" as="geometry" />
        </mxCell>
        <mxCell id="Q2zMbFvxR_m6wFwk5AVr-12" style="edgeStyle=orthogonalEdgeStyle;rounded=0;orthogonalLoop=1;jettySize=auto;html=1;entryX=0.5;entryY=0;entryDx=0;entryDy=0;" edge="1" parent="WIyWlLk6GJQsqaUBKTNV-1" source="Q2zMbFvxR_m6wFwk5AVr-13" target="Q2zMbFvxR_m6wFwk5AVr-14">
          <mxGeometry relative="1" as="geometry" />
        </mxCell>
        <mxCell id="Q2zMbFvxR_m6wFwk5AVr-13" value="&lt;p style=&quot;margin:0px;margin-top:4px;text-align:center;&quot;&gt;&lt;br&gt;&lt;b&gt;UserDTO&lt;/b&gt;&lt;/p&gt;" style="verticalAlign=top;align=left;overflow=fill;html=1;whiteSpace=wrap;" vertex="1" parent="WIyWlLk6GJQsqaUBKTNV-1">
          <mxGeometry x="639" y="330" width="140" height="60" as="geometry" />
        </mxCell>
        <mxCell id="Q2zMbFvxR_m6wFwk5AVr-14" value="&lt;p style=&quot;margin:0px;margin-top:4px;text-align:center;&quot;&gt;&lt;br&gt;&lt;b&gt;PhoneDTO&lt;/b&gt;&lt;/p&gt;" style="verticalAlign=top;align=left;overflow=fill;html=1;whiteSpace=wrap;" vertex="1" parent="WIyWlLk6GJQsqaUBKTNV-1">
          <mxGeometry x="639" y="440" width="140" height="60" as="geometry" />
        </mxCell>
        <mxCell id="Q2zMbFvxR_m6wFwk5AVr-17" value="M2" style="shape=datastore;whiteSpace=wrap;html=1;" vertex="1" parent="WIyWlLk6GJQsqaUBKTNV-1">
          <mxGeometry x="337" y="580" width="164" height="60" as="geometry" />
        </mxCell>
        <mxCell id="Q2zMbFvxR_m6wFwk5AVr-18" style="edgeStyle=orthogonalEdgeStyle;rounded=0;orthogonalLoop=1;jettySize=auto;html=1;entryX=1;entryY=0.5;entryDx=0;entryDy=0;" edge="1" parent="WIyWlLk6GJQsqaUBKTNV-1" source="Q2zMbFvxR_m6wFwk5AVr-10" target="Q2zMbFvxR_m6wFwk5AVr-17">
          <mxGeometry relative="1" as="geometry">
            <Array as="points">
              <mxPoint x="549" y="370" />
              <mxPoint x="549" y="610" />
            </Array>
          </mxGeometry>
        </mxCell>
        <mxCell id="Q2zMbFvxR_m6wFwk5AVr-26" style="edgeStyle=orthogonalEdgeStyle;rounded=0;orthogonalLoop=1;jettySize=auto;html=1;" edge="1" parent="WIyWlLk6GJQsqaUBKTNV-1" source="Q2zMbFvxR_m6wFwk5AVr-21" target="Q2zMbFvxR_m6wFwk5AVr-10">
          <mxGeometry relative="1" as="geometry">
            <Array as="points">
              <mxPoint x="423" y="300" />
              <mxPoint x="423" y="300" />
            </Array>
          </mxGeometry>
        </mxCell>
        <mxCell id="Q2zMbFvxR_m6wFwk5AVr-21" value="«interface»&lt;br&gt;&lt;b&gt;User&lt;/b&gt;" style="html=1;whiteSpace=wrap;" vertex="1" parent="WIyWlLk6GJQsqaUBKTNV-1">
          <mxGeometry x="368" y="210" width="110" height="50" as="geometry" />
        </mxCell>
        <mxCell id="Q2zMbFvxR_m6wFwk5AVr-25" style="edgeStyle=orthogonalEdgeStyle;rounded=0;orthogonalLoop=1;jettySize=auto;html=1;" edge="1" parent="WIyWlLk6GJQsqaUBKTNV-1" source="Q2zMbFvxR_m6wFwk5AVr-23" target="Q2zMbFvxR_m6wFwk5AVr-21">
          <mxGeometry relative="1" as="geometry" />
        </mxCell>
        <mxCell id="Q2zMbFvxR_m6wFwk5AVr-23" value="UserImpl" style="html=1;whiteSpace=wrap;" vertex="1" parent="WIyWlLk6GJQsqaUBKTNV-1">
          <mxGeometry x="558" y="210" width="110" height="50" as="geometry" />
        </mxCell>
        <mxCell id="Q2zMbFvxR_m6wFwk5AVr-29" value="" style="line;strokeWidth=1;fillColor=#dae8fc;align=left;verticalAlign=middle;spacingTop=-1;spacingLeft=3;spacingRight=3;rotatable=0;labelPosition=right;points=[];portConstraint=eastwest;strokeColor=#6c8ebf;" vertex="1" parent="WIyWlLk6GJQsqaUBKTNV-1">
          <mxGeometry x="19" y="290" width="800" height="8" as="geometry" />
        </mxCell>
        <mxCell id="Q2zMbFvxR_m6wFwk5AVr-30" value="" style="line;strokeWidth=1;fillColor=#dae8fc;align=left;verticalAlign=middle;spacingTop=-1;spacingLeft=3;spacingRight=3;rotatable=0;labelPosition=right;points=[];portConstraint=eastwest;strokeColor=#6c8ebf;" vertex="1" parent="WIyWlLk6GJQsqaUBKTNV-1">
          <mxGeometry x="19" y="170" width="800" height="8" as="geometry" />
        </mxCell>
        <mxCell id="Q2zMbFvxR_m6wFwk5AVr-32" style="edgeStyle=orthogonalEdgeStyle;rounded=0;orthogonalLoop=1;jettySize=auto;html=1;" edge="1" parent="WIyWlLk6GJQsqaUBKTNV-1" source="Q2zMbFvxR_m6wFwk5AVr-31" target="Q2zMbFvxR_m6wFwk5AVr-21">
          <mxGeometry relative="1" as="geometry" />
        </mxCell>
        <mxCell id="Q2zMbFvxR_m6wFwk5AVr-34" style="edgeStyle=orthogonalEdgeStyle;rounded=0;orthogonalLoop=1;jettySize=auto;html=1;" edge="1" parent="WIyWlLk6GJQsqaUBKTNV-1" source="Q2zMbFvxR_m6wFwk5AVr-31" target="Q2zMbFvxR_m6wFwk5AVr-33">
          <mxGeometry relative="1" as="geometry" />
        </mxCell>
        <mxCell id="Q2zMbFvxR_m6wFwk5AVr-37" style="edgeStyle=orthogonalEdgeStyle;rounded=0;orthogonalLoop=1;jettySize=auto;html=1;entryX=1;entryY=0.5;entryDx=0;entryDy=0;" edge="1" parent="WIyWlLk6GJQsqaUBKTNV-1" source="Q2zMbFvxR_m6wFwk5AVr-31" target="Q2zMbFvxR_m6wFwk5AVr-36">
          <mxGeometry relative="1" as="geometry" />
        </mxCell>
        <mxCell id="Q2zMbFvxR_m6wFwk5AVr-31" value="UserController" style="html=1;whiteSpace=wrap;" vertex="1" parent="WIyWlLk6GJQsqaUBKTNV-1">
          <mxGeometry x="368" y="80" width="110" height="50" as="geometry" />
        </mxCell>
        <mxCell id="Q2zMbFvxR_m6wFwk5AVr-33" value="Config" style="html=1;whiteSpace=wrap;" vertex="1" parent="WIyWlLk6GJQsqaUBKTNV-1">
          <mxGeometry x="89" y="40" width="110" height="50" as="geometry" />
        </mxCell>
        <mxCell id="Q2zMbFvxR_m6wFwk5AVr-35" value="" style="line;strokeWidth=1;fillColor=#dae8fc;align=left;verticalAlign=middle;spacingTop=-1;spacingLeft=3;spacingRight=3;rotatable=0;labelPosition=right;points=[];portConstraint=eastwest;strokeColor=#6c8ebf;" vertex="1" parent="WIyWlLk6GJQsqaUBKTNV-1">
          <mxGeometry x="9" y="540" width="800" height="8" as="geometry" />
        </mxCell>
        <mxCell id="Q2zMbFvxR_m6wFwk5AVr-36" value="MessageResponse" style="html=1;whiteSpace=wrap;" vertex="1" parent="WIyWlLk6GJQsqaUBKTNV-1">
          <mxGeometry x="89" y="110" width="110" height="50" as="geometry" />
        </mxCell>
      </root>
    </mxGraphModel>
  </diagram>
</mxfile>
